<?xml version="1.0" encoding="UTF-8" standalone="no"?>
<!-- Created with Inkscape (http://www.inkscape.org/) -->

<svg
   xmlns:dc="http://purl.org/dc/elements/1.1/"
   xmlns:cc="http://creativecommons.org/ns#"
   xmlns:rdf="http://www.w3.org/1999/02/22-rdf-syntax-ns#"
   xmlns:svg="http://www.w3.org/2000/svg"
   xmlns="http://www.w3.org/2000/svg"
   xmlns:sodipodi="http://sodipodi.sourceforge.net/DTD/sodipodi-0.dtd"
   xmlns:inkscape="http://www.inkscape.org/namespaces/inkscape"
   id="svg2"
   version="1.1"
   inkscape:version="0.48.2 r9819"
   width="900"
   height="675"
   xml:space="preserve"
   sodipodi:docname="oil_directory.pdf"><metadata
     id="metadata8"><rdf:RDF><cc:Work
         rdf:about=""><dc:format>image/svg+xml</dc:format><dc:type
           rdf:resource="http://purl.org/dc/dcmitype/StillImage" /><dc:title></dc:title></cc:Work></rdf:RDF></metadata><defs
     id="defs6"><clipPath
       clipPathUnits="userSpaceOnUse"
       id="clipPath16"><path
         d="m 0,1.2207e-4 720,0 0,539.99999793 -720,0 L 0,1.2207e-4 z"
         clip-rule="evenodd"
         id="path18" /></clipPath></defs><sodipodi:namedview
     pagecolor="#ffffff"
     bordercolor="#666666"
     borderopacity="1"
     objecttolerance="10"
     gridtolerance="10"
     guidetolerance="10"
     inkscape:pageopacity="0"
     inkscape:pageshadow="2"
     inkscape:window-width="640"
     inkscape:window-height="403"
     id="namedview4"
     showgrid="false"
     inkscape:zoom="0.34962963"
     inkscape:cx="450"
     inkscape:cy="337.5"
     inkscape:window-x="243"
     inkscape:window-y="123"
     inkscape:window-maximized="0"
     inkscape:current-layer="g10" /><g
     id="g10"
     inkscape:groupmode="layer"
     inkscape:label="oil_directory"
     transform="matrix(1.25,0,0,-1.25,0,675)"><g
       id="g12"><g
         id="g14"
         clip-path="url(#clipPath16)"><path
           d="m 0,6.104e-6 720,0 L 720,540.00001 l -720,0 L 0,6.104e-6 z"
           style="fill:#ffffff;fill-opacity:1;fill-rule:evenodd;stroke:none"
           id="path20" /></g></g><path
       d="m 33.319,74.184 c 0,3.489 2.828,6.317 6.317,6.317 0,0 0,0 0,0 l 0,0 639.404,0 0,0 c 3.49,0 6.32,-2.828 6.32,-6.317 0,0 0,0 0,0 l 0,0 0,-50.533 0,0 c 0,-3.489 -2.83,-6.317 -6.32,-6.317 0,0 0,0 0,0 l 0,0 -639.404,0 0,0 c -3.489,0 -6.317,2.828 -6.317,6.317 0,0 0,0 0,0 l 0,50.533 z"
       style="fill:#d0d8e8;fill-opacity:1;fill-rule:evenodd;stroke:none"
       id="path22" /><text
       transform="matrix(1,0,0,-1,49.176,44.472)"
       id="text24"><tspan
         style="fill:#000000;fill-opacity:1;fill-rule:nonzero;stroke:none;font-family:Calibri;font-style:italic;font-variant:normal;font-weight:bold;font-size:15.12;writing-mode:lr;-inkscape-font-specification:'Calibri,BoldItalic'"
         x="0 6.24456 14.16744 17.766 21.36456 25.4016 29.04552 35.27496 43.21296 50.652 58.57488 63.89712 71.77464 79.69752 87.6204 95.05944 98.658 105.85512 113.03712 120.46104 124.07472 128.11176 136.08 143.98776 156.21984"
         y="0"
         sodipodi:role="line"
         id="tspan26">/oil.ica_group_level.name</tspan></text>
<path
       d="m 33.319,147.88 c 0,3.49 2.828,6.31 6.317,6.31 0,0 0,0 0,0 l 0,0 639.404,0 0,0 c 3.49,0 6.32,-2.82 6.32,-6.31 0,0 0,0 0,0 l 0,0 0,-50.535 0,0 c 0,-3.488 -2.83,-6.317 -6.32,-6.317 0,0 0,0 0,0 l 0,0 -639.404,0 0,0 c -3.489,0 -6.317,2.829 -6.317,6.317 0,0 0,0 0,0 l 0,50.535 z"
       style="fill:#d0d8e8;fill-opacity:1;fill-rule:evenodd;stroke:none"
       id="path28" /><text
       transform="matrix(1,0,0,-1,50.688,118.01)"
       id="text30"><tspan
         style="fill:#000000;fill-opacity:1;fill-rule:nonzero;stroke:none;font-family:Calibri;font-style:italic;font-variant:normal;font-weight:bold;font-size:16.104;writing-mode:lr;-inkscape-font-specification:'Calibri,BoldItalic'"
         x="0 6.715368 15.121656 18.954408 22.78716 27.086928 30.951888 37.425696 45.831984 53.755152 58.795704 62.628456 68.377584 74.384376 79.908048 87.831216 91.663968 99.345576 106.785624 114.692688 118.541544 122.841312 131.263704 139.669992 152.617608"
         y="0"
         sodipodi:role="line"
         id="tspan32">/oil.ica_first_level.name</tspan></text>
<path
       d="m 33.319,221.57 c 0,3.49 2.828,6.32 6.317,6.32 0,0 0,0 0,0 l 0,0 639.404,0 0,0 c 3.49,0 6.32,-2.83 6.32,-6.32 0,0 0,0 0,0 l 0,0 0,-50.53 0,0 c 0,-3.49 -2.83,-6.32 -6.32,-6.32 0,0 0,0 0,0 l 0,0 -639.404,0 0,0 c -3.489,0 -6.317,2.83 -6.317,6.32 0,0 0,0 0,0 l 0,50.53 z"
       style="fill:#d0d8e8;fill-opacity:1;fill-rule:evenodd;stroke:none"
       id="path34" /><text
       transform="matrix(1,0,0,-1,87.192,191.74)"
       id="text36"><tspan
         style="fill:#000000;fill-opacity:1;fill-rule:nonzero;stroke:none;font-family:Calibri;font-style:italic;font-variant:normal;font-weight:bold;font-size:16.08;writing-mode:lr;-inkscape-font-specification:'Calibri,BoldItalic'"
         x="0 6.72144 15.1152 18.95832 22.80144 27.0948 30.954 37.43424 45.828 50.12136 58.59552 66.94104 79.86936"
         y="0"
         sodipodi:role="line"
         id="tspan38">/oil.ica.name</tspan></text>
<path
       d="m 33.319,295.27 c 0,3.49 2.828,6.31 6.317,6.31 0,0 0,0 0,0 l 0,0 639.404,0 0,0 c 3.49,0 6.32,-2.82 6.32,-6.31 0,0 0,0 0,0 l 0,0 0,-50.54 0,0 c 0,-3.49 -2.83,-6.31 -6.32,-6.31 0,0 0,0 0,0 l 0,0 -639.404,0 0,0 c -3.489,0 -6.317,2.82 -6.317,6.31 0,0 0,0 0,0 l 0,50.54 z"
       style="fill:#d0d8e8;fill-opacity:1;fill-rule:evenodd;stroke:none"
       id="path40" /><text
       transform="matrix(1,0,0,-1,55.968,265.46)"
       id="text42"><tspan
         style="fill:#000000;fill-opacity:1;fill-rule:nonzero;stroke:none;font-family:Calibri;font-style:italic;font-variant:normal;font-weight:bold;font-size:16.08;writing-mode:lr;-inkscape-font-specification:'Calibri,BoldItalic'"
         x="0 6.72144 15.1152 18.95832 22.80144 27.0948 33.6072 42.00096 50.39472 56.87496 65.26872 70.78416 78.7116 84.95064 93.3444 101.73816 107.9772 112.27056 120.74472 129.09024 142.01856"
         y="0"
         sodipodi:role="line"
         id="tspan44">/oil.concat_subs.name</tspan></text>
<path
       d="m 33.319,368.96 c 0,3.49 2.828,6.32 6.317,6.32 0,0 0,0 0,0 l 0,0 639.404,0 0,0 c 3.49,0 6.32,-2.83 6.32,-6.32 0,0 0,0 0,0 l 0,0 0,-50.53 0,0 c 0,-3.49 -2.83,-6.32 -6.32,-6.32 0,0 0,0 0,0 l 0,0 -639.404,0 0,0 c -3.489,0 -6.317,2.83 -6.317,6.32 0,0 0,0 0,0 l 0,50.53 z"
       style="fill:#d0d8e8;fill-opacity:1;fill-rule:evenodd;stroke:none"
       id="path46" /><text
       transform="matrix(1,0,0,-1,60.048,339.19)"
       id="text48"><tspan
         style="fill:#000000;fill-opacity:1;fill-rule:nonzero;stroke:none;font-family:Calibri;font-style:italic;font-variant:normal;font-weight:bold;font-size:16.08;writing-mode:lr;-inkscape-font-specification:'Calibri,BoldItalic'"
         x="0 6.72144 15.1152 18.95832 22.80144 27.0948 35.02224 43.1748 50.61984 58.51512 62.37432 70.76808 79.16184 83.00496 91.39872 99.79248 104.08584 112.56 120.90552 133.83384"
         y="0"
         sodipodi:role="line"
         id="tspan50">/oil.enveloping.name</tspan></text>
<path
       d="m 33.319,442.66 c 0,3.48 2.828,6.31 6.317,6.31 0,0 0,0 0,0 l 0,0 639.404,0 0,0 c 3.49,0 6.32,-2.83 6.32,-6.31 0,0 0,0 0,0 l 0,0 0,-50.54 0,0 c 0,-3.49 -2.83,-6.31 -6.32,-6.31 0,0 0,0 0,0 l 0,0 -639.404,0 0,0 c -3.489,0 -6.317,2.82 -6.317,6.31 0,0 0,0 0,0 l 0,50.54 z"
       style="fill:#d0d8e8;fill-opacity:1;fill-rule:evenodd;stroke:none"
       id="path52" /><text
       transform="matrix(1,0,0,-1,43.248,412.92)"
       id="text54"><tspan
         style="fill:#000000;fill-opacity:1;fill-rule:nonzero;stroke:none;font-family:Calibri;font-style:italic;font-variant:normal;font-weight:bold;font-size:16.08;writing-mode:lr;-inkscape-font-specification:'Calibri,BoldItalic'"
         x="0"
         y="0"
         id="tspan56">/</tspan></text>
<text
       transform="matrix(1,0,0,-1,49.968,412.92)"
       id="text58"><tspan
         style="fill:#000000;fill-opacity:1;fill-rule:nonzero;stroke:none;font-family:Calibri;font-style:italic;font-variant:normal;font-weight:bold;font-size:16.08;writing-mode:lr;-inkscape-font-specification:'Calibri,BoldItalic'"
         x="0 8.39376 12.23688 16.08 20.37336 26.64456 35.03832 43.43208 49.17264 55.878 63.77328 71.7168 77.45736 85.35264 91.86504 100.2588 108.65256 112.94592 121.37184 125.21496 130.95552 139.34928 147.74304 160.67136"
         y="0"
         sodipodi:role="line"
         id="tspan60">oil.source_recon.dirname</tspan></text>
<path
       d="m 33.319,518.03 c 0,3.48 2.828,6.31 6.317,6.31 0,0 0,0 0,0 l 0,0 639.404,0 0,0 c 3.49,0 6.32,-2.83 6.32,-6.31 0,0 0,0 0,0 l 0,0 0,-50.54 0,0 c 0,-3.49 -2.83,-6.31 -6.32,-6.31 0,0 0,0 0,0 l 0,0 -639.404,0 0,0 c -3.489,0 -6.317,2.82 -6.317,6.31 0,0 0,0 0,0 l 0,50.54 z"
       style="fill:#d0d8e8;fill-opacity:1;fill-rule:evenodd;stroke:none"
       id="path62" /><text
       transform="matrix(1,0,0,-1,54.048,497.11)"
       id="text64"><tspan
         style="fill:#000000;fill-opacity:1;fill-rule:nonzero;stroke:none;font-family:Calibri;font-style:italic;font-variant:normal;font-weight:bold;font-size:16.08;writing-mode:lr;-inkscape-font-specification:'Calibri,BoldItalic'"
         x="0 8.61888 14.35944 22.25472 30.68064 36.4212 44.81496 51.52032 59.4156 65.6868 71.92584 79.82112"
         y="0"
         sodipodi:role="line"
         id="tspan66">Preprocessed</tspan></text>
<text
       transform="matrix(1,0,0,-1,145.27,497.11)"
       id="text68"><tspan
         style="fill:#000000;fill-opacity:1;fill-rule:nonzero;stroke:none;font-family:Calibri;font-style:italic;font-variant:normal;font-weight:bold;font-size:16.08;writing-mode:lr;-inkscape-font-specification:'Calibri,BoldItalic'"
         x="0 7.4772 16.06392 30.21432 33.57504 41.004 44.84712 48.69024 56.58552 62.85672"
         y="0"
         sodipodi:role="line"
         id="tspan70">SPM Files </tspan></text>
<text
       transform="matrix(1,0,0,-1,91.992,479.35)"
       id="text72"><tspan
         style="fill:#000000;fill-opacity:1;fill-rule:nonzero;stroke:none;font-family:Calibri;font-style:italic;font-variant:normal;font-weight:bold;font-size:16.08;writing-mode:lr;-inkscape-font-specification:'Calibri,BoldItalic'"
         x="0 7.4772 12.71928 21.11304 26.8536 34.74888 43.1748 46.53552 56.61768 64.51296 70.28568"
         y="0"
         sodipodi:role="line"
         id="tspan74">Stored Here</tspan></text>
<path
       d="m 325.78,512.14 c 0,2.91 2.36,5.26 5.27,5.26 0,0 0,0 0,0 l 0,0 179.63,0 0,0 c 2.91,0 5.27,-2.35 5.27,-5.26 0,0 0,0 0,0 l 0,0 0,-42.11 0,0 c 0,-2.91 -2.36,-5.27 -5.27,-5.27 0,0 0,0 0,0 l 0,0 -179.63,0 0,0 c -2.91,0 -5.27,2.36 -5.27,5.27 0,0 0,0 0,0 l 0,42.11 z"
       style="fill:#4f81bd;fill-opacity:1;fill-rule:evenodd;stroke:none"
       id="path76" /><path
       d="m 325.78,512.14 c 0,2.91 2.36,5.26 5.27,5.26 0,0 0,0 0,0 l 0,0 179.63,0 0,0 c 2.91,0 5.27,-2.35 5.27,-5.26 0,0 0,0 0,0 l 0,0 0,-42.11 0,0 c 0,-2.91 -2.36,-5.27 -5.27,-5.27 0,0 0,0 0,0 l 0,0 -179.63,0 0,0 c -2.91,0 -5.27,2.36 -5.27,5.27 0,0 0,0 0,0 l 0,42.11 z"
       style="fill:none;stroke:#ffffff;stroke-opacity:1;stroke-width:2;stroke-linecap:butt;stroke-linejoin:round;stroke-miterlimit:10;stroke-dasharray:none"
       id="path78" /><text
       transform="matrix(1,0,0,-1,384.31,493.13)"
       id="text80"><tspan
         style="fill:#ffffff;fill-opacity:1;fill-rule:nonzero;stroke:none;font-family:Calibri;font-variant:normal;font-weight:bold;font-size:7.92;writing-mode:lr;-inkscape-font-specification:Calibri Bold"
         x="0 6.95376 10.78704 12.22848 19.41984 23.72832 26.60328 30.43656 32.3532 36.66168 40.49496 42.40368 47.43288 49.34952 52.22448 56.29536 59.64552 62.28288 66.59136 69.46632"
         y="0"
         sodipodi:role="line"
         id="tspan82">My Working Directory</tspan></text>
<text
       transform="matrix(1,0,0,-1,376.63,484.49)"
       id="text84"><tspan
         style="fill:#ffffff;fill-opacity:1;fill-rule:nonzero;stroke:none;font-family:Calibri;font-style:italic;font-variant:normal;font-weight:normal;font-size:7.92;writing-mode:lr;-inkscape-font-specification:Calibri Italic"
         x="0 3.83328 5.74992 9.8208 11.75328 13.43232 16.54488 20.61576 24.69456 30.93552 34.7688"
         y="0"
         sodipodi:role="line"
         id="tspan86">e.g. /home/</tspan></text>
<text
       transform="matrix(1,0,0,-1,414.58,484.49)"
       id="text88"><tspan
         style="fill:#ffffff;fill-opacity:1;fill-rule:nonzero;stroke:none;font-family:Calibri;font-style:italic;font-variant:normal;font-weight:normal;font-size:7.92;writing-mode:lr;-inkscape-font-specification:Calibri Italic"
         x="0 4.07088 7.92 14.16096 18.22392 20.87712 22.78584 25.43904"
         y="0"
         sodipodi:role="line"
         id="tspan90">p_morita</tspan></text>
<text
       transform="matrix(1,0,0,-1,444.1,484.49)"
       id="text92"><tspan
         style="fill:#ffffff;fill-opacity:1;fill-rule:nonzero;stroke:none;font-family:Calibri;font-style:italic;font-variant:normal;font-weight:normal;font-size:7.92;writing-mode:lr;-inkscape-font-specification:Calibri Italic"
         x="0 3.11256 7.18344 11.25432 13.90752 17.9784"
         y="0"
         sodipodi:role="line"
         id="tspan94">/data/</tspan></text>
<path
       d="m 420.87,464.76 0,-10.52 -57.28,0 0,-10.53"
       style="fill:none;stroke:#3d6696;stroke-opacity:1;stroke-width:2;stroke-linecap:butt;stroke-linejoin:round;stroke-miterlimit:10;stroke-dasharray:none"
       id="path96" /><path
       d="m 319.89,438.44 c 0,2.91 2.36,5.27 5.27,5.27 0,0 0,0 0,0 l 0,0 76.87,0 0,0 c 2.91,0 5.27,-2.36 5.27,-5.27 0,0 0,0 0,0 l 0,0 0,-42.11 0,0 c 0,-2.9 -2.36,-5.26 -5.27,-5.26 0,0 0,0 0,0 l 0,0 -76.87,0 0,0 c -2.91,0 -5.27,2.36 -5.27,5.26 0,0 0,0 0,0 l 0,42.11 z"
       style="fill:#4f81bd;fill-opacity:1;fill-rule:evenodd;stroke:none"
       id="path98" /><path
       d="m 319.89,438.44 c 0,2.91 2.36,5.27 5.27,5.27 0,0 0,0 0,0 l 0,0 76.87,0 0,0 c 2.91,0 5.27,-2.36 5.27,-5.27 0,0 0,0 0,0 l 0,0 0,-42.11 0,0 c 0,-2.9 -2.36,-5.26 -5.27,-5.26 0,0 0,0 0,0 l 0,0 -76.87,0 0,0 c -2.91,0 -5.27,2.36 -5.27,5.26 0,0 0,0 0,0 l 0,42.11 z"
       style="fill:none;stroke:#ffffff;stroke-opacity:1;stroke-width:2;stroke-linecap:butt;stroke-linejoin:round;stroke-miterlimit:10;stroke-dasharray:none"
       id="path100" /><text
       transform="matrix(1,0,0,-1,325.15,421.13)"
       id="text102"><tspan
         style="fill:#ffffff;fill-opacity:1;fill-rule:nonzero;stroke:none;font-family:Calibri;font-variant:normal;font-weight:bold;font-size:7.944;writing-mode:lr;-inkscape-font-specification:Calibri Bold"
         x="0 4.551912 8.627184 12.464136 18.922608 21.345528 25.65912 28.534848 34.99332 39.08448 41.960208 43.636392 48.450456 52.74816 56.585112 58.50756 62.336568 65.45856 67.381008 70.503 72.655824"
         y="0"
         sodipodi:role="line"
         id="tspan104">Beamformer Analysis 1</tspan></text>
<text
       transform="matrix(1,0,0,-1,345.55,408.86)"
       id="text106"><tspan
         style="fill:#ffffff;fill-opacity:1;fill-rule:nonzero;stroke:none;font-family:Calibri;font-style:italic;font-variant:normal;font-weight:normal;font-size:7.92;writing-mode:lr;-inkscape-font-specification:Calibri Italic"
         x="0 3.83328 5.74992 9.8208 11.75328 13.43232"
         y="0"
         sodipodi:role="line"
         id="tspan108">e.g. 8</tspan></text>
<text
       transform="matrix(1,0,0,-1,363.07,408.86)"
       id="text110"><tspan
         style="fill:#ffffff;fill-opacity:1;fill-rule:nonzero;stroke:none;font-family:Calibri;font-style:italic;font-variant:normal;font-weight:normal;font-size:7.92;writing-mode:lr;-inkscape-font-specification:Calibri Italic"
         x="0"
         y="0"
         id="tspan112">-</tspan></text>
<text
       transform="matrix(1,0,0,-1,365.47,408.86)"
       id="text114"><tspan
         style="fill:#ffffff;fill-opacity:1;fill-rule:nonzero;stroke:none;font-family:Calibri;font-style:italic;font-variant:normal;font-weight:normal;font-size:7.92;writing-mode:lr;-inkscape-font-specification:Calibri Italic"
         x="0 4.07088 8.14176 13.17096"
         y="0"
         sodipodi:role="line"
         id="tspan116">13Hz</tspan></text>
<path
       d="m 420.87,464.76 0,-10.52 55.54,0 0,-10.53"
       style="fill:none;stroke:#3d6696;stroke-opacity:1;stroke-width:2;stroke-linecap:butt;stroke-linejoin:round;stroke-miterlimit:10;stroke-dasharray:none"
       id="path118" /><path
       d="m 430.98,438.44 c 0,2.91 2.36,5.27 5.27,5.27 0,0 0,0 0,0 l 0,0 80.32,0 0,0 c 2.91,0 5.27,-2.36 5.27,-5.27 0,0 0,0 0,0 l 0,0 0,-42.11 0,0 c 0,-2.9 -2.36,-5.26 -5.27,-5.26 0,0 0,0 0,0 l 0,0 -80.32,0 0,0 c -2.91,0 -5.27,2.36 -5.27,5.26 0,0 0,0 0,0 l 0,42.11 z"
       style="fill:#4f81bd;fill-opacity:1;fill-rule:evenodd;stroke:none"
       id="path120" /><path
       d="m 430.98,438.44 c 0,2.91 2.36,5.27 5.27,5.27 0,0 0,0 0,0 l 0,0 80.32,0 0,0 c 2.91,0 5.27,-2.36 5.27,-5.27 0,0 0,0 0,0 l 0,0 0,-42.11 0,0 c 0,-2.9 -2.36,-5.26 -5.27,-5.26 0,0 0,0 0,0 l 0,0 -80.32,0 0,0 c -2.91,0 -5.27,2.36 -5.27,5.26 0,0 0,0 0,0 l 0,42.11 z"
       style="fill:none;stroke:#ffffff;stroke-opacity:1;stroke-width:2;stroke-linecap:butt;stroke-linejoin:round;stroke-miterlimit:10;stroke-dasharray:none"
       id="path122" /><text
       transform="matrix(1,0,0,-1,438.19,421.13)"
       id="text124"><tspan
         style="fill:#ffffff;fill-opacity:1;fill-rule:nonzero;stroke:none;font-family:Calibri;font-variant:normal;font-weight:bold;font-size:7.944;writing-mode:lr;-inkscape-font-specification:Calibri Bold"
         x="0 4.551912 8.627184 12.464136 18.922608 21.345528 25.65912 28.534848 34.99332 39.08448 41.960208 43.636392 48.450456 52.74816 56.585112 58.50756 62.336568 65.45856 67.381008 70.503 72.655824"
         y="0"
         sodipodi:role="line"
         id="tspan126">Beamformer Analysis 2</tspan></text>
<text
       transform="matrix(1,0,0,-1,456.43,408.86)"
       id="text128"><tspan
         style="fill:#ffffff;fill-opacity:1;fill-rule:nonzero;stroke:none;font-family:Calibri;font-style:italic;font-variant:normal;font-weight:normal;font-size:7.92;writing-mode:lr;-inkscape-font-specification:Calibri Italic"
         x="0 3.83328 5.74992 9.8208 11.75328 13.43232 17.5032"
         y="0"
         sodipodi:role="line"
         id="tspan130">e.g. 13</tspan></text>
<text
       transform="matrix(1,0,0,-1,478.06,408.86)"
       id="text132"><tspan
         style="fill:#ffffff;fill-opacity:1;fill-rule:nonzero;stroke:none;font-family:Calibri;font-style:italic;font-variant:normal;font-weight:normal;font-size:7.92;writing-mode:lr;-inkscape-font-specification:Calibri Italic"
         x="0"
         y="0"
         id="tspan134">-</tspan></text>
<text
       transform="matrix(1,0,0,-1,480.46,408.86)"
       id="text136"><tspan
         style="fill:#ffffff;fill-opacity:1;fill-rule:nonzero;stroke:none;font-family:Calibri;font-style:italic;font-variant:normal;font-weight:normal;font-size:7.92;writing-mode:lr;-inkscape-font-specification:Calibri Italic"
         x="0 4.07088 8.14176 13.17096"
         y="0"
         sodipodi:role="line"
         id="tspan138">30Hz</tspan></text>
<path
       d="m 476.41,391.07 0,-10.53 -57.55,0 0,-10.53"
       style="fill:none;stroke:#4774ab;stroke-opacity:1;stroke-width:2;stroke-linecap:butt;stroke-linejoin:round;stroke-miterlimit:10;stroke-dasharray:none"
       id="path140" /><path
       d="m 371.46,364.75 c 0,2.91 2.36,5.26 5.27,5.26 0,0 0,0 0,0 l 0,0 84.26,0 0,0 c 2.91,0 5.27,-2.35 5.27,-5.26 0,0 0,0 0,0 l 0,0 0,-42.11 0,0 c 0,-2.91 -2.36,-5.26 -5.27,-5.26 0,0 0,0 0,0 l 0,0 -84.26,0 0,0 c -2.91,0 -5.27,2.35 -5.27,5.26 0,0 0,0 0,0 l 0,42.11 z"
       style="fill:#4f81bd;fill-opacity:1;fill-rule:evenodd;stroke:none"
       id="path142" /><path
       d="m 371.46,364.75 c 0,2.91 2.36,5.26 5.27,5.26 0,0 0,0 0,0 l 0,0 84.26,0 0,0 c 2.91,0 5.27,-2.35 5.27,-5.26 0,0 0,0 0,0 l 0,0 0,-42.11 0,0 c 0,-2.91 -2.36,-5.26 -5.27,-5.26 0,0 0,0 0,0 l 0,0 -84.26,0 0,0 c -2.91,0 -5.27,2.35 -5.27,5.26 0,0 0,0 0,0 l 0,42.11 z"
       style="fill:none;stroke:#ffffff;stroke-opacity:1;stroke-width:2;stroke-linecap:butt;stroke-linejoin:round;stroke-miterlimit:10;stroke-dasharray:none"
       id="path144" /><text
       transform="matrix(1,0,0,-1,383.21,347.4)"
       id="text146"><tspan
         style="fill:#ffffff;fill-opacity:1;fill-rule:nonzero;stroke:none;font-family:Calibri;font-variant:normal;font-weight:bold;font-size:7.92;writing-mode:lr;-inkscape-font-specification:Calibri Bold"
         x="0 3.8412 8.14968 11.98296 16.05384 17.97048 22.27896 26.58744 28.50408 32.81256 36.64584 38.08728 42.8868 47.2032 51.0444 52.96104 56.79432 59.9148 61.83144 64.95192 67.10616"
         y="0"
         sodipodi:role="line"
         id="tspan148">Enveloping Analysis 1</tspan></text>
<text
       transform="matrix(1,0,0,-1,382.25,335.14)"
       id="text150"><tspan
         style="fill:#ffffff;fill-opacity:1;fill-rule:nonzero;stroke:none;font-family:Calibri;font-style:italic;font-variant:normal;font-weight:normal;font-size:7.92;writing-mode:lr;-inkscape-font-specification:Calibri Italic"
         x="0 3.83328 5.74992 9.8208 11.75328"
         y="0"
         sodipodi:role="line"
         id="tspan152">e.g. </tspan></text>
<text
       transform="matrix(1,0,0,-1,395.69,335.14)"
       id="text154"><tspan
         style="fill:#ffffff;fill-opacity:1;fill-rule:nonzero;stroke:none;font-family:Calibri;font-style:italic;font-variant:normal;font-weight:normal;font-size:7.92;writing-mode:lr;-inkscape-font-specification:Calibri Italic"
         x="0 4.07088 7.18344 9.09216 13.89168 17.95464 23.7204"
         y="0"
         sodipodi:role="line"
         id="tspan156">1s Down</tspan></text>
<text
       transform="matrix(1,0,0,-1,423.55,335.14)"
       id="text158"><tspan
         style="fill:#ffffff;fill-opacity:1;fill-rule:nonzero;stroke:none;font-family:Calibri;font-style:italic;font-variant:normal;font-weight:normal;font-size:7.92;writing-mode:lr;-inkscape-font-specification:Calibri Italic"
         x="0"
         y="0"
         id="tspan160">-</tspan></text>
<text
       transform="matrix(1,0,0,-1,425.95,335.14)"
       id="text162"><tspan
         style="fill:#ffffff;fill-opacity:1;fill-rule:nonzero;stroke:none;font-family:Calibri;font-style:italic;font-variant:normal;font-weight:normal;font-size:7.92;writing-mode:lr;-inkscape-font-specification:Calibri Italic"
         x="0 3.11256 7.18344 13.44816 17.51904 19.42776 21.33648 25.40736"
         y="0"
         sodipodi:role="line"
         id="tspan164">sampling</tspan></text>
<path
       d="m 418.86,317.37 0,-10.52 -56.07,0 0,-10.53"
       style="fill:none;stroke:#4774ab;stroke-opacity:1;stroke-width:2;stroke-linecap:butt;stroke-linejoin:round;stroke-miterlimit:10;stroke-dasharray:none"
       id="path166" /><path
       d="m 321.24,291.06 c 0,2.9 2.35,5.26 5.26,5.26 0,0 0,0 0,0 l 0,0 72.59,0 0,0 c 2.9,0 5.26,-2.36 5.26,-5.26 0,0 0,0 0,0 l 0,0 0,-42.12 0,0 c 0,-2.9 -2.35,-5.26 -5.26,-5.26 0,0 0,0 0,0 l 0,0 -72.59,0 0,0 c -2.91,0 -5.26,2.36 -5.26,5.26 0,0 0,0 0,0 l 0,42.12 z"
       style="fill:#4f81bd;fill-opacity:1;fill-rule:evenodd;stroke:none"
       id="path168" /><path
       d="m 321.24,291.06 c 0,2.9 2.35,5.26 5.26,5.26 0,0 0,0 0,0 l 0,0 72.59,0 0,0 c 2.9,0 5.26,-2.36 5.26,-5.26 0,0 0,0 0,0 l 0,0 0,-42.12 0,0 c 0,-2.9 -2.35,-5.26 -5.26,-5.26 0,0 0,0 0,0 l 0,0 -72.59,0 0,0 c -2.91,0 -5.26,2.36 -5.26,5.26 0,0 0,0 0,0 l 0,42.12 z"
       style="fill:none;stroke:#ffffff;stroke-opacity:1;stroke-width:2;stroke-linecap:butt;stroke-linejoin:round;stroke-miterlimit:10;stroke-dasharray:none"
       id="path170" /><text
       transform="matrix(1,0,0,-1,325.51,271.94)"
       id="text172"><tspan
         style="fill:#ffffff;fill-opacity:1;fill-rule:nonzero;stroke:none;font-family:Calibri;font-variant:normal;font-weight:bold;font-size:7.92;writing-mode:lr;-inkscape-font-specification:Calibri Bold"
         x="0 4.0788 8.38728 12.69576 16.04592 19.88712 22.52448 26.59536 30.90384 34.74504 37.3824 41.45328 45.76176 47.67048 52.71552 55.58256 59.89104 64.19952 68.508 70.41672"
         y="0"
         sodipodi:role="line"
         id="tspan174">Concatenated Group 1</tspan></text>
<text
       transform="matrix(1,0,0,-1,331.03,263.3)"
       id="text176"><tspan
         style="fill:#ffffff;fill-opacity:1;fill-rule:nonzero;stroke:none;font-family:Calibri;font-style:italic;font-variant:normal;font-weight:normal;font-size:7.92;writing-mode:lr;-inkscape-font-specification:Calibri Italic"
         x="0 3.83328 5.74992 9.8208 11.75328 13.43232 17.27352 20.8692 24.70248 27.81504 29.72376 34.99848 39.06936 42.91056 46.98144 48.906 54.18072 58.2516 60.17616"
         y="0"
         sodipodi:role="line"
         id="tspan178">e.g. Eyes Open Only</tspan></text>
<path
       d="m 418.86,317.37 0,-10.52 53.4,0 0,-10.53"
       style="fill:none;stroke:#4774ab;stroke-opacity:1;stroke-width:2;stroke-linecap:butt;stroke-linejoin:round;stroke-miterlimit:10;stroke-dasharray:none"
       id="path180" /><path
       d="m 428.04,291.06 c 0,2.9 2.36,5.26 5.26,5.26 0,0 0,0 0,0 l 0,0 77.92,0 0,0 c 2.91,0 5.26,-2.36 5.26,-5.26 0,0 0,0 0,0 l 0,0 0,-42.12 0,0 c 0,-2.9 -2.35,-5.26 -5.26,-5.26 0,0 0,0 0,0 l 0,0 -77.92,0 0,0 c -2.9,0 -5.26,2.36 -5.26,5.26 0,0 0,0 0,0 l 0,42.12 z"
       style="fill:#4f81bd;fill-opacity:1;fill-rule:evenodd;stroke:none"
       id="path182" /><path
       d="m 428.04,291.06 c 0,2.9 2.36,5.26 5.26,5.26 0,0 0,0 0,0 l 0,0 77.92,0 0,0 c 2.91,0 5.26,-2.36 5.26,-5.26 0,0 0,0 0,0 l 0,0 0,-42.12 0,0 c 0,-2.9 -2.35,-5.26 -5.26,-5.26 0,0 0,0 0,0 l 0,0 -77.92,0 0,0 c -2.9,0 -5.26,2.36 -5.26,5.26 0,0 0,0 0,0 l 0,42.12 z"
       style="fill:none;stroke:#ffffff;stroke-opacity:1;stroke-width:2;stroke-linecap:butt;stroke-linejoin:round;stroke-miterlimit:10;stroke-dasharray:none"
       id="path184" /><text
       transform="matrix(1,0,0,-1,435,276.36)"
       id="text186"><tspan
         style="fill:#ffffff;fill-opacity:1;fill-rule:nonzero;stroke:none;font-family:Calibri;font-variant:normal;font-weight:bold;font-size:7.92;writing-mode:lr;-inkscape-font-specification:Calibri Bold"
         x="0 4.0788 8.38728 12.69576 16.04592 19.88712 22.52448 26.59536 30.90384 34.74504 37.3824 41.45328 45.76176 47.67048 52.71552 55.58256 59.89104 64.19952 68.508 70.41672"
         y="0"
         sodipodi:role="line"
         id="tspan188">Concatenated Group 2</tspan></text>
<text
       transform="matrix(1,0,0,-1,437.16,267.7)"
       id="text190"><tspan
         style="fill:#ffffff;fill-opacity:1;fill-rule:nonzero;stroke:none;font-family:Calibri;font-style:italic;font-variant:normal;font-weight:normal;font-size:7.944;writing-mode:lr;-inkscape-font-specification:Calibri Italic"
         x="0 3.829008 5.751456 9.834672 11.749176 13.42536 17.262312 20.853 24.682008 27.796056 29.71056 34.985376 39.068592 42.8976 46.980816 48.887376 54.400512 56.076696 59.913648 63.504336 67.333344 70.447392"
         y="0"
         sodipodi:role="line"
         id="tspan192">e.g. Eyes Open &amp; Eyes </tspan></text>
<text
       transform="matrix(1,0,0,-1,461.9,258.82)"
       id="text194"><tspan
         style="fill:#ffffff;fill-opacity:1;fill-rule:nonzero;stroke:none;font-family:Calibri;font-style:italic;font-variant:normal;font-weight:normal;font-size:7.92;writing-mode:lr;-inkscape-font-specification:Calibri Italic"
         x="0 4.0788 5.98752 10.05048 13.17888 17.01216"
         y="0"
         sodipodi:role="line"
         id="tspan196">Closed</tspan></text>
<path
       d="m 472.26,243.68 0,-10.53 -51.32,0 0,-10.52"
       style="fill:none;stroke:#4774ab;stroke-opacity:1;stroke-width:2;stroke-linecap:butt;stroke-linejoin:round;stroke-miterlimit:10;stroke-dasharray:none"
       id="path198" /><path
       d="m 381.46,217.36 c 0,2.91 2.36,5.27 5.26,5.27 0,0 0,0 0,0 l 0,0 68.43,0 0,0 c 2.91,0 5.27,-2.36 5.27,-5.27 0,0 0,0 0,0 l 0,0 0,-42.11 0,0 c 0,-2.91 -2.36,-5.26 -5.27,-5.26 0,0 0,0 0,0 l 0,0 -68.43,0 0,0 c -2.9,0 -5.26,2.35 -5.26,5.26 0,0 0,0 0,0 l 0,42.11 z"
       style="fill:#4f81bd;fill-opacity:1;fill-rule:evenodd;stroke:none"
       id="path200" /><path
       d="m 381.46,217.36 c 0,2.91 2.36,5.27 5.26,5.27 0,0 0,0 0,0 l 0,0 68.43,0 0,0 c 2.91,0 5.27,-2.36 5.27,-5.27 0,0 0,0 0,0 l 0,0 0,-42.11 0,0 c 0,-2.91 -2.36,-5.26 -5.27,-5.26 0,0 0,0 0,0 l 0,0 -68.43,0 0,0 c -2.9,0 -5.26,2.35 -5.26,5.26 0,0 0,0 0,0 l 0,42.11 z"
       style="fill:none;stroke:#ffffff;stroke-opacity:1;stroke-width:2;stroke-linecap:butt;stroke-linejoin:round;stroke-miterlimit:10;stroke-dasharray:none"
       id="path202" /><text
       transform="matrix(1,0,0,-1,397.99,202.63)"
       id="text204"><tspan
         style="fill:#ffffff;fill-opacity:1;fill-rule:nonzero;stroke:none;font-family:Calibri;font-variant:normal;font-weight:bold;font-size:7.92;writing-mode:lr;-inkscape-font-specification:Calibri Bold"
         x="0 2.15424 6.23304 11.03256 12.7116 17.51112 21.82752 25.66872 27.58536 31.41864 34.53912 36.45576 39.57624 41.73048"
         y="0"
         sodipodi:role="line"
         id="tspan206">ICA Analysis 1</tspan></text>
<text
       transform="matrix(1,0,0,-1,398.95,193.99)"
       id="text208"><tspan
         style="fill:#ffffff;fill-opacity:1;fill-rule:nonzero;stroke:none;font-family:Calibri;font-style:italic;font-variant:normal;font-weight:normal;font-size:7.944;writing-mode:lr;-inkscape-font-specification:Calibri Italic"
         x="0 3.829008 5.751456 9.834672 11.749176 13.42536 17.500632 21.575904 23.490408 27.573624 31.648896 37.89288 41.976096 43.8906"
         y="0"
         sodipodi:role="line"
         id="tspan210">e.g. 25 Comp. </tspan></text>
<text
       transform="matrix(1,0,0,-1,399.43,185.09)"
       id="text212"><tspan
         style="fill:#ffffff;fill-opacity:1;fill-rule:nonzero;stroke:none;font-family:Calibri;font-style:italic;font-variant:normal;font-weight:normal;font-size:7.92;writing-mode:lr;-inkscape-font-specification:Calibri Italic"
         x="0 3.85704 7.67448 13.91544 17.98632 22.06512 24.70248 28.77336 30.69792 32.60664 34.52328 38.60208"
         y="0"
         sodipodi:role="line"
         id="tspan214">Temporal ICA</tspan></text>
<path
       d="m 472.26,243.68 0,-10.53 51.32,0 0,-10.52"
       style="fill:none;stroke:#4774ab;stroke-opacity:1;stroke-width:2;stroke-linecap:butt;stroke-linejoin:round;stroke-miterlimit:10;stroke-dasharray:none"
       id="path216" /><path
       d="m 484.1,217.36 c 0,2.91 2.36,5.27 5.27,5.27 0,0 0,0 0,0 l 0,0 68.43,0 0,0 c 2.91,0 5.26,-2.36 5.26,-5.27 0,0 0,0 0,0 l 0,0 0,-42.11 0,0 c 0,-2.91 -2.35,-5.26 -5.26,-5.26 0,0 0,0 0,0 l 0,0 -68.43,0 0,0 c -2.91,0 -5.27,2.35 -5.27,5.26 0,0 0,0 0,0 l 0,42.11 z"
       style="fill:#4f81bd;fill-opacity:1;fill-rule:evenodd;stroke:none"
       id="path218" /><path
       d="m 484.1,217.36 c 0,2.91 2.36,5.27 5.27,5.27 0,0 0,0 0,0 l 0,0 68.43,0 0,0 c 2.91,0 5.26,-2.36 5.26,-5.27 0,0 0,0 0,0 l 0,0 0,-42.11 0,0 c 0,-2.91 -2.35,-5.26 -5.26,-5.26 0,0 0,0 0,0 l 0,0 -68.43,0 0,0 c -2.91,0 -5.27,2.35 -5.27,5.26 0,0 0,0 0,0 l 0,42.11 z"
       style="fill:none;stroke:#ffffff;stroke-opacity:1;stroke-width:2;stroke-linecap:butt;stroke-linejoin:round;stroke-miterlimit:10;stroke-dasharray:none"
       id="path220" /><text
       transform="matrix(1,0,0,-1,500.66,202.63)"
       id="text222"><tspan
         style="fill:#ffffff;fill-opacity:1;fill-rule:nonzero;stroke:none;font-family:Calibri;font-variant:normal;font-weight:bold;font-size:7.92;writing-mode:lr;-inkscape-font-specification:Calibri Bold"
         x="0 2.15424 6.23304 11.03256"
         y="0"
         sodipodi:role="line"
         id="tspan224">ICA </tspan></text>
<text
       transform="matrix(1,0,0,-1,513.41,202.63)"
       id="text226"><tspan
         style="fill:#ffffff;fill-opacity:1;fill-rule:nonzero;stroke:none;font-family:Calibri;font-variant:normal;font-weight:bold;font-size:7.92;writing-mode:lr;-inkscape-font-specification:Calibri Bold"
         x="0 4.79952 9.11592 12.95712 14.87376 18.70704 21.82752 23.74416 26.86464 29.01888"
         y="0"
         sodipodi:role="line"
         id="tspan228">Analysis 2</tspan></text>
<text
       transform="matrix(1,0,0,-1,501.62,193.99)"
       id="text230"><tspan
         style="fill:#ffffff;fill-opacity:1;fill-rule:nonzero;stroke:none;font-family:Calibri;font-style:italic;font-variant:normal;font-weight:normal;font-size:7.944;writing-mode:lr;-inkscape-font-specification:Calibri Italic"
         x="0 3.829008 5.751456 9.834672 11.749176 13.42536 17.500632 21.575904 23.490408 27.573624 31.648896 37.89288 41.976096 43.8906"
         y="0"
         sodipodi:role="line"
         id="tspan232">e.g. 25 Comp. </tspan></text>
<text
       transform="matrix(1,0,0,-1,506.42,185.09)"
       id="text234"><tspan
         style="fill:#ffffff;fill-opacity:1;fill-rule:nonzero;stroke:none;font-family:Calibri;font-style:italic;font-variant:normal;font-weight:normal;font-size:7.92;writing-mode:lr;-inkscape-font-specification:Calibri Italic"
         x="0 3.57984 7.67448 11.74536 14.39856 16.30728 20.37816 22.30272 23.98176 25.8984 29.9772"
         y="0"
         sodipodi:role="line"
         id="tspan236">Spatial ICA</tspan></text>
<path
       d="m 523.58,169.99 0,-21.06"
       style="fill:none;stroke:#4774ab;stroke-opacity:1;stroke-width:2;stroke-linecap:butt;stroke-linejoin:round;stroke-miterlimit:10;stroke-dasharray:none"
       id="path238" /><path
       d="m 484.1,143.67 c 0,2.9 2.36,5.26 5.27,5.26 0,0 0,0 0,0 l 0,0 68.43,0 0,0 c 2.91,0 5.26,-2.36 5.26,-5.26 0,0 0,0 0,0 l 0,0 0,-42.11 0,0 c 0,-2.911 -2.35,-5.268 -5.26,-5.268 0,0 0,0 0,0 l 0,0 -68.43,0 0,0 c -2.91,0 -5.27,2.357 -5.27,5.268 0,0 0,0 0,0 l 0,42.11 z"
       style="fill:#4f81bd;fill-opacity:1;fill-rule:evenodd;stroke:none"
       id="path240" /><path
       d="m 484.1,143.67 c 0,2.9 2.36,5.26 5.27,5.26 0,0 0,0 0,0 l 0,0 68.43,0 0,0 c 2.91,0 5.26,-2.36 5.26,-5.26 0,0 0,0 0,0 l 0,0 0,-42.11 0,0 c 0,-2.911 -2.35,-5.268 -5.26,-5.268 0,0 0,0 0,0 l 0,0 -68.43,0 0,0 c -2.91,0 -5.27,2.357 -5.27,5.268 0,0 0,0 0,0 l 0,42.11 z"
       style="fill:none;stroke:#ffffff;stroke-opacity:1;stroke-width:2;stroke-linecap:butt;stroke-linejoin:round;stroke-miterlimit:10;stroke-dasharray:none"
       id="path242" /><text
       transform="matrix(1,0,0,-1,491.54,128.9)"
       id="text244"><tspan
         style="fill:#ffffff;fill-opacity:1;fill-rule:nonzero;stroke:none;font-family:Calibri;font-variant:normal;font-weight:bold;font-size:7.92;writing-mode:lr;-inkscape-font-specification:Calibri Bold"
         x="0 2.15424 6.23304 11.03256 12.7116 16.3152 18.23184 21.1068 24.22728 26.86464 29.01888 32.36904 36.44784 40.28112 44.352 46.26864 47.94768 51.78096 54.41832 58.25952 60.89688"
         y="0"
         sodipodi:role="line"
         id="tspan246">ICA First Level Stats</tspan></text>
<text
       transform="matrix(1,0,0,-1,492.74,120.26)"
       id="text248"><tspan
         style="fill:#ffffff;fill-opacity:1;fill-rule:nonzero;stroke:none;font-family:Calibri;font-style:italic;font-variant:normal;font-weight:normal;font-size:7.92;writing-mode:lr;-inkscape-font-specification:Calibri Italic"
         x="0 3.83328 5.74992 9.8208 11.75328 13.43232 18.46944 21.582 23.49072 27.5616 31.63248 33.56496 40.28112 44.12232 49.15152 51.30576 53.2224 57.3012 61.86312"
         y="0"
         sodipodi:role="line"
         id="tspan250">e.g. Using MEG ICA </tspan></text>
<text
       transform="matrix(1,0,0,-1,509.54,111.36)"
       id="text252"><tspan
         style="fill:#ffffff;fill-opacity:1;fill-rule:nonzero;stroke:none;font-family:Calibri;font-style:italic;font-variant:normal;font-weight:normal;font-size:7.944;writing-mode:lr;-inkscape-font-specification:Calibri Italic"
         x="0 4.321536 8.404752 11.510856 13.42536 16.539408 17.977272 21.56796 25.412856"
         y="0"
         sodipodi:role="line"
         id="tspan254">Basis Set</tspan></text>
<path
       d="m 523.58,96.292 0,-21.055"
       style="fill:none;stroke:#4774ab;stroke-opacity:1;stroke-width:2;stroke-linecap:butt;stroke-linejoin:round;stroke-miterlimit:10;stroke-dasharray:none"
       id="path256" /><path
       d="m 484.1,69.973 c 0,2.907 2.36,5.264 5.27,5.264 0,0 0,0 0,0 l 0,0 68.43,0 0,0 c 2.91,0 5.26,-2.357 5.26,-5.264 0,0 0,0 0,0 l 0,0 0,-42.111 0,0 c 0,-2.907 -2.35,-5.264 -5.26,-5.264 0,0 0,0 0,0 l 0,0 -68.43,0 0,0 c -2.91,0 -5.27,2.357 -5.27,5.264 0,0 0,0 0,0 l 0,42.111 z"
       style="fill:#4f81bd;fill-opacity:1;fill-rule:evenodd;stroke:none"
       id="path258" /><path
       d="m 484.1,69.973 c 0,2.907 2.36,5.264 5.27,5.264 0,0 0,0 0,0 l 0,0 68.43,0 0,0 c 2.91,0 5.26,-2.357 5.26,-5.264 0,0 0,0 0,0 l 0,0 0,-42.111 0,0 c 0,-2.907 -2.35,-5.264 -5.26,-5.264 0,0 0,0 0,0 l 0,0 -68.43,0 0,0 c -2.91,0 -5.27,2.357 -5.27,5.264 0,0 0,0 0,0 l 0,42.111 z"
       style="fill:none;stroke:#ffffff;stroke-opacity:1;stroke-width:2;stroke-linecap:butt;stroke-linejoin:round;stroke-miterlimit:10;stroke-dasharray:none"
       id="path260" /><text
       transform="matrix(1,0,0,-1,497.3,63.96)"
       id="text262"><tspan
         style="fill:#ffffff;fill-opacity:1;fill-rule:nonzero;stroke:none;font-family:Calibri;font-variant:normal;font-weight:bold;font-size:7.92;writing-mode:lr;-inkscape-font-specification:Calibri Bold"
         x="0 2.15424 6.23304 11.03256 12.7116 17.75664 20.62368 24.93216 29.24064 33.54912 35.45784 38.808 42.8868 46.72008 50.79096 52.7076"
         y="0"
         sodipodi:role="line"
         id="tspan264">ICA Group Level </tspan></text>
<text
       transform="matrix(1,0,0,-1,515.57,55.32)"
       id="text266"><tspan
         style="fill:#ffffff;fill-opacity:1;fill-rule:nonzero;stroke:none;font-family:Calibri;font-variant:normal;font-weight:bold;font-size:7.92;writing-mode:lr;-inkscape-font-specification:Calibri Bold"
         x="0 3.83328 6.47064 10.31184 12.9492"
         y="0"
         sodipodi:role="line"
         id="tspan268">Stats</tspan></text>
<text
       transform="matrix(1,0,0,-1,507.89,46.44)"
       id="text270"><tspan
         style="fill:#ffffff;fill-opacity:1;fill-rule:nonzero;stroke:none;font-family:Calibri;font-style:italic;font-variant:normal;font-weight:normal;font-size:7.92;writing-mode:lr;-inkscape-font-specification:Calibri Italic"
         x="0 3.83328 5.74992 9.8208 11.75328 13.43232 18.46944 21.582 23.49072 27.5616 31.63248"
         y="0"
         sodipodi:role="line"
         id="tspan272">e.g. Using </tspan></text>
<text
       transform="matrix(1,0,0,-1,491.3,37.56)"
       id="text274"><tspan
         style="fill:#ffffff;fill-opacity:1;fill-rule:nonzero;stroke:none;font-family:Calibri;font-style:italic;font-variant:normal;font-weight:normal;font-size:7.92;writing-mode:lr;-inkscape-font-specification:Calibri Italic"
         x="0 4.30056 8.88624 13.92336 18.72288 23.9976 30.71376 32.6304 36.21024 40.0752 42.22152 46.30032 48.20904 52.27992 55.4004 58.0536 61.87104 64.5084"
         y="0"
         sodipodi:role="line"
         id="tspan276">RANDOMISE Cluster </tspan></text>
<text
       transform="matrix(1,0,0,-1,501.86,28.92)"
       id="text278"><tspan
         style="fill:#ffffff;fill-opacity:1;fill-rule:nonzero;stroke:none;font-family:Calibri;font-style:italic;font-variant:normal;font-weight:normal;font-size:7.92;writing-mode:lr;-inkscape-font-specification:Calibri Italic"
         x="0 3.85704 7.92792 10.55736 14.39064 17.5032 21.57408 25.65288 27.5616 31.63248 33.31944 37.39032 39.30696"
         y="0"
         sodipodi:role="line"
         id="tspan280">Threshold 2.3</tspan></text>
<path
       d="m 476.41,391.07 0,-10.53 59.24,0 0,-10.53"
       style="fill:none;stroke:#4774ab;stroke-opacity:1;stroke-width:2;stroke-linecap:butt;stroke-linejoin:round;stroke-miterlimit:10;stroke-dasharray:none"
       id="path282" /><path
       d="m 489.94,364.75 c 0,2.91 2.36,5.26 5.27,5.26 0,0 0,0 0,0 l 0,0 80.88,0 0,0 c 2.91,0 5.27,-2.35 5.27,-5.26 0,0 0,0 0,0 l 0,0 0,-42.11 0,0 c 0,-2.91 -2.36,-5.26 -5.27,-5.26 0,0 0,0 0,0 l 0,0 -80.88,0 0,0 c -2.91,0 -5.27,2.35 -5.27,5.26 0,0 0,0 0,0 l 0,42.11 z"
       style="fill:#4f81bd;fill-opacity:1;fill-rule:evenodd;stroke:none"
       id="path284" /><path
       d="m 489.94,364.75 c 0,2.91 2.36,5.26 5.27,5.26 0,0 0,0 0,0 l 0,0 80.88,0 0,0 c 2.91,0 5.27,-2.35 5.27,-5.26 0,0 0,0 0,0 l 0,0 0,-42.11 0,0 c 0,-2.91 -2.36,-5.26 -5.27,-5.26 0,0 0,0 0,0 l 0,0 -80.88,0 0,0 c -2.91,0 -5.27,2.35 -5.27,5.26 0,0 0,0 0,0 l 0,42.11 z"
       style="fill:none;stroke:#ffffff;stroke-opacity:1;stroke-width:2;stroke-linecap:butt;stroke-linejoin:round;stroke-miterlimit:10;stroke-dasharray:none"
       id="path286" /><text
       transform="matrix(1,0,0,-1,500.04,347.4)"
       id="text288"><tspan
         style="fill:#ffffff;fill-opacity:1;fill-rule:nonzero;stroke:none;font-family:Calibri;font-variant:normal;font-weight:bold;font-size:7.92;writing-mode:lr;-inkscape-font-specification:Calibri Bold"
         x="0 3.8412 8.14968 11.98296 16.05384 17.97048 22.27896 26.58744 28.50408 32.81256 36.64584 38.08728 42.8868 47.2032 51.0444 52.96104 56.79432 59.9148 61.83144 64.95192 67.10616"
         y="0"
         sodipodi:role="line"
         id="tspan290">Enveloping Analysis 2</tspan></text>
<text
       transform="matrix(1,0,0,-1,498.36,335.14)"
       id="text292"><tspan
         style="fill:#ffffff;fill-opacity:1;fill-rule:nonzero;stroke:none;font-family:Calibri;font-style:italic;font-variant:normal;font-weight:normal;font-size:7.92;writing-mode:lr;-inkscape-font-specification:Calibri Italic"
         x="0 3.83328 5.74992 9.8208 11.75328"
         y="0"
         sodipodi:role="line"
         id="tspan294">e.g. </tspan></text>
<text
       transform="matrix(1,0,0,-1,513.72,335.14)"
       id="text296"><tspan
         style="fill:#ffffff;fill-opacity:1;fill-rule:nonzero;stroke:none;font-family:Calibri;font-style:italic;font-variant:normal;font-weight:normal;font-size:7.92;writing-mode:lr;-inkscape-font-specification:Calibri Italic"
         x="0 4.07088 7.18344 8.86248 13.662 17.72496 23.49072"
         y="0"
         sodipodi:role="line"
         id="tspan298">2s Down</tspan></text>
<text
       transform="matrix(1,0,0,-1,541.32,335.14)"
       id="text300"><tspan
         style="fill:#ffffff;fill-opacity:1;fill-rule:nonzero;stroke:none;font-family:Calibri;font-style:italic;font-variant:normal;font-weight:normal;font-size:7.92;writing-mode:lr;-inkscape-font-specification:Calibri Italic"
         x="0"
         y="0"
         id="tspan302">-</tspan></text>
<text
       transform="matrix(1,0,0,-1,543.72,335.14)"
       id="text304"><tspan
         style="fill:#ffffff;fill-opacity:1;fill-rule:nonzero;stroke:none;font-family:Calibri;font-style:italic;font-variant:normal;font-weight:normal;font-size:7.92;writing-mode:lr;-inkscape-font-specification:Calibri Italic"
         x="0 3.11256 7.18344 13.44816 17.51904 19.42776 21.33648 25.40736"
         y="0"
         sodipodi:role="line"
         id="tspan306">sampling</tspan></text>
</g></svg>